<svg width="400" height="384" fill="none" xmlns="http://www.w3.org/2000/svg"><path fill="#83B3D3" fill-opacity=".12" d="M0 0h400v384H0z"/><path d="M192.7 154h16v-23.8h-16V154Zm2.9-20.9h10.1v18h-10.1v-18Z" fill="#81B3D2"/><path d="m235.8 128.3 2.1-2.1-9.9-9.9V89h-13.9v13.6L200.5 89l-37.3 37.2 2.1 2.1 7.8-7.8v37.6h-4v2.9H233v-2.9h-5.1v-37.6l7.9 7.8ZM225 158.1h-49v-40.6l24.5-24.4 24.5 24.4v40.6Zm0-44.7-7.9-7.9V91.9h7.9v21.5Z" fill="#81B3D2"/><path d="M192.9 116.1c0 4.3 3.5 7.7 7.7 7.7 4.3 0 7.8-3.5 7.8-7.7 0-4.3-3.5-7.7-7.8-7.7a7.7 7.7 0 0 0-7.7 7.7Zm7.8-5a5 5 0 0 1 5 4.9c0 2.7-2.2 4.9-5 4.9a5 5 0 0 1-5-4.9c0-2.7 2.2-4.9 5-4.9ZM183.1 130.2h-3v3.9h3v-3.9ZM189 130.2h-3v3.9h3v-3.9ZM183.1 136.2h-3v3.9h3v-3.9ZM189 136.2h-3v3.9h3v-3.9ZM215 130.2h-3v3.9h3v-3.9ZM220.9 130.2h-3v3.9h3v-3.9ZM215 136.2h-3v3.9h3v-3.9ZM220.9 136.2h-3v3.9h3v-3.9Z" fill="#81B3D2"/></svg>