<svg width="400" height="384" fill="none" xmlns="http://www.w3.org/2000/svg"><path fill="#83B3D3" fill-opacity=".12" d="M0 0h400v384H0z"/><g clip-path="url(#a)"><path d="M229.1 107.5h-24.8c13.8-6.9 14.9-11.3 14.4-13.7-1.2-4-5.7-7-10-5.4-5.6 2.1-7.1 10.4-8.6 16.4-2-6.1-3.8-13.8-8.2-17.7-1.3-1.1-3.1-2.3-5.8-2-4 .4-9.8 5.4-7.5 11 2.3 5.4 9.7 8.8 14.6 11.5h-22.3a2.9 2.9 0 0 0-2.9 2.9v11.3c0 1.6 1.3 2.9 2.9 2.9h.3V161H229v-36.4h.1c1.6 0 2.9-1.3 2.9-2.9v-11.3c0-1.6-1.3-2.9-2.9-2.9Zm-18.7-16.6c2.1-.3 5 1.3 5.3 3.2.4 2.8-3.4 5.3-5.1 6.4-2.5 1.7-4.9 2.6-7.3 4.1.9-3.7 2.5-13 7.1-13.7Zm-22.9 10c-2.2-1.5-6.5-4.4-6.4-7.8.1-3.6 5.7-6.6 8.8-3.9 3.9 3.4 5.7 11.1 7.1 16.6-3.2-1.5-6.3-2.8-9.5-4.9Zm6 57.1h-19.4v-33.4h19.4V158Zm0-36.5H171v-11h22.5v11Zm10.2 0V158h-7.2v-47.4h7.2v10.9ZM226 158h-19.4v-33.4H226V158Zm2.9-36.5h-22.3v-11h22.3v11Z" fill="#81B3D2"/></g><defs><clipPath id="a"><path fill="#fff" transform="translate(168 85)" d="M0 0h64v76H0z"/></clipPath></defs></svg>